<?xml version="1.0" encoding="UTF-8"?>
<svg version="1.1" xmlns="http://www.w3.org/2000/svg" width="1920" height="1080">
<path d="M0 0 C0.78697266 -0.00040283 1.57394531 -0.00080566 2.38476562 -0.0012207 C31.98087253 0.08565046 61.42881681 8.35611906 83.32421875 29.140625 C98.89763177 45.12171899 105.26260613 63.84475156 105.03100586 85.87011719 C104.37822318 106.52054793 95.82758091 136.81960922 80.46582031 151.43188477 C77.50541291 156.10679184 77.88541839 160.82420872 77.8125 166.25 C77.78285156 167.32443359 77.75320313 168.39886719 77.72265625 169.50585938 C77.65215079 172.14981427 77.59935857 174.7928973 77.5625 177.4375 C78.13259293 177.41466446 78.70268585 177.39182892 79.29005432 177.36830139 C127.59196183 175.43543482 127.59196183 175.43543482 146.25 174.8125 C147.9671521 174.75267944 147.9671521 174.75267944 149.71899414 174.69165039 C158.34665181 174.41465953 166.91666055 174.4375 175.5625 174.4375 C175.5625 131.2075 175.5625 87.9775 175.5625 43.4375 C238.5625 32.4375 238.5625 32.4375 244.5625 32.4375 C244.5625 150.2475 244.5625 268.0575 244.5625 389.4375 C233.31138726 388.31238873 233.31138726 388.31238873 228.42602539 387.33007812 C227.33532242 387.11315308 226.24461945 386.89622803 225.12086487 386.67272949 C223.97883102 386.44041626 222.83679718 386.20810303 221.66015625 385.96875 C220.46063828 385.72838013 219.2611203 385.48801025 218.0252533 385.24035645 C215.5078341 384.73493451 212.99087665 384.22720771 210.47436523 383.71728516 C206.6135065 382.9351717 202.75123657 382.16035859 198.88867188 381.38671875 C196.43741485 380.89365228 193.98623998 380.4001772 191.53515625 379.90625 C190.37895279 379.67393677 189.22274933 379.44162354 188.0315094 379.20227051 C186.96287155 378.98534546 185.8942337 378.76842041 184.79321289 378.54492188 C183.85296768 378.35474487 182.91272247 378.16456787 181.94398499 377.96862793 C179.5625 377.4375 179.5625 377.4375 176.5625 376.4375 C176.5625 332.2175 176.5625 287.9975 176.5625 242.4375 C162.3725 241.7775 148.1825 241.1175 133.5625 240.4375 C123.16596985 239.90634378 112.77011942 239.36946975 102.375 238.8125 C99.82487667 238.67695393 97.27474644 238.54153751 94.72460938 238.40625 C88.67049383 238.08480498 82.61646067 237.76184836 76.5625 237.4375 C76.58129211 238.53763176 76.58129211 238.53763176 76.60046387 239.6599884 C76.72315418 246.89659549 76.84069344 254.13326539 76.95365143 261.3700304 C77.01174498 265.08226306 77.07124415 268.79445606 77.13525391 272.5065918 C77.6624869 303.48960034 77.5625 334.44118179 77.5625 365.4375 C-0.3175 365.4375 -78.1975 365.4375 -158.4375 365.4375 C-157.4375 341.4375 -157.4375 341.4375 -153.4375 335.625 C-151.78616555 334.21106118 -150.11924594 332.81512805 -148.4375 331.4375 C-146.91913316 329.65771 -145.44037652 327.84347654 -144 326 C-140.14041397 321.22753797 -136.06550009 316.70640891 -131.91015625 312.19140625 C-128.70081886 308.61702574 -125.69751998 304.89545259 -122.68359375 301.15625 C-119.63829532 297.47011485 -116.42722108 293.9489161 -113.1875 290.43359375 C-110.56213231 287.43903372 -110.3035868 285.70109377 -110.23217773 281.80419922 C-110.21223251 280.84335419 -110.19228729 279.88250916 -110.17173767 278.89254761 C-110.15502518 277.85292877 -110.13831268 276.81330994 -110.12109375 275.7421875 C-110.0899221 274.14831711 -110.0899221 274.14831711 -110.05812073 272.52224731 C-109.99259739 269.11906562 -109.93372727 265.71580511 -109.875 262.3125 C-109.83181743 260.00910634 -109.78820323 257.70572074 -109.74414062 255.40234375 C-109.63691318 249.74747979 -109.53515198 244.09253697 -109.4375 238.4375 C-110.36755859 238.4876123 -111.29761719 238.53772461 -112.25585938 238.58935547 C-131.82019905 239.63841202 -151.38735862 240.60120004 -170.96240234 241.42877197 C-173.0547233 241.51724417 -175.14700936 241.60654591 -177.23925781 241.69671631 C-180.20496896 241.8240268 -183.17080875 241.94773162 -186.13671875 242.0703125 C-187.00105026 242.10771545 -187.86538177 242.14511841 -188.75590515 242.18365479 C-195.33321603 242.44859754 -201.83873072 242.4375 -208.4375 242.4375 C-208.4375 286.6575 -208.4375 330.8775 -208.4375 376.4375 C-221.93999399 379.8131235 -221.93999399 379.8131235 -226.72509766 380.7878418 C-227.79885651 381.00784348 -228.87261536 381.22784515 -229.97891235 381.45451355 C-231.0918869 381.67964127 -232.20486145 381.90476898 -233.3515625 382.13671875 C-234.52842621 382.3766304 -235.70528992 382.61654205 -236.91781616 382.86372375 C-239.37968191 383.36494591 -241.84181319 383.86486551 -244.30419922 384.36352539 C-248.08764149 385.13009395 -251.87003779 385.90167454 -255.65234375 386.67382812 C-258.05202337 387.16175332 -260.45176088 387.64939395 -262.8515625 388.13671875 C-264.55138779 388.48351936 -264.55138779 388.48351936 -266.28555298 388.83732605 C-267.84890884 389.15314384 -267.84890884 389.15314384 -269.44384766 389.4753418 C-270.36251617 389.661707 -271.28118469 389.8480722 -272.22769165 390.04008484 C-274.4375 390.4375 -274.4375 390.4375 -276.4375 390.4375 C-276.49606646 331.59308327 -276.46048398 272.75016609 -276.21875 213.90625 C-276.21601342 213.23890886 -276.21327683 212.57156772 -276.21045732 211.88400412 C-276.14114823 195.00662091 -276.0674895 178.12925776 -275.99211788 161.25190067 C-275.94855773 151.48808814 -275.90626312 141.72427065 -275.86474609 131.96044922 C-275.8617591 131.25806033 -275.8587721 130.55567145 -275.85569459 129.83199805 C-275.84069417 126.30321172 -275.82571341 122.7744253 -275.81074238 119.24563885 C-275.68936926 90.64291246 -275.56464134 62.04020133 -275.4375 33.4375 C-273.55517622 33.42713762 -273.55517622 33.42713762 -271.63482571 33.4165659 C-270.57601858 33.41073706 -270.57601858 33.41073706 -269.49582142 33.40479046 C-266.69080192 33.44936605 -263.99140067 33.81733278 -261.22094727 34.24780273 C-260.06357559 34.42476181 -258.90620392 34.60172089 -257.71376038 34.78404236 C-256.48950851 34.97776932 -255.26525665 35.17149628 -254.00390625 35.37109375 C-252.09338722 35.66718285 -252.09338722 35.66718285 -250.14427185 35.96925354 C-247.46511571 36.38494422 -244.78665251 36.8047727 -242.10864258 37.2277832 C-238.670809 37.77059364 -235.2316265 38.30422904 -231.79191685 38.83500576 C-228.50773986 39.34274994 -225.22461101 39.85709928 -221.94140625 40.37109375 C-220.70298477 40.56279648 -219.46456329 40.75449921 -218.18861389 40.95201111 C-217.05330734 41.13212234 -215.91800079 41.31223358 -214.74829102 41.49780273 C-213.24227074 41.73429787 -213.24227074 41.73429787 -211.70582581 41.97557068 C-209.4375 42.4375 -209.4375 42.4375 -208.4375 43.4375 C-208.34130559 45.13308703 -208.31562341 46.8327084 -208.31724548 48.53102112 C-208.31518349 50.18646439 -208.31518349 50.18646439 -208.31307983 51.87535095 C-208.31847275 53.70737816 -208.31847275 53.70737816 -208.32397461 55.57641602 C-208.32382858 56.85427979 -208.32368256 58.13214355 -208.3235321 59.44873047 C-208.32324415 62.96303591 -208.3291406 66.4773075 -208.33610606 69.99160504 C-208.34233988 73.66049356 -208.34294342 77.32938277 -208.34413147 80.99827576 C-208.3472447 87.95040435 -208.35545798 94.9025173 -208.36548096 101.85463899 C-208.37664234 109.7674478 -208.38215261 117.68025734 -208.38717639 125.59307206 C-208.3976406 141.87455721 -208.41523989 158.15602661 -208.4375 174.4375 C-207.83614951 174.43520889 -207.23479902 174.43291779 -206.61522579 174.43055725 C-193.47542749 174.38739186 -180.35650502 174.48565121 -167.22265625 174.875 C-165.61885859 174.92012138 -164.01505281 174.96495517 -162.41123962 175.00952148 C-158.28013811 175.12505758 -154.14915526 175.24437916 -150.01818848 175.36462402 C-145.76675047 175.48765997 -141.51520677 175.60692997 -137.26367188 175.7265625 C-128.98817632 175.95995648 -120.7128028 176.19736898 -112.4375 176.4375 C-112.44994421 175.56922152 -112.44994421 175.56922152 -112.46263981 174.68340206 C-112.66226809 160.53332425 -112.8107486 146.38346011 -112.90380955 132.23226833 C-112.95002165 125.38845874 -113.01290609 118.54559473 -113.11645508 111.70239258 C-113.2164809 105.08881491 -113.26817384 98.47595556 -113.29139519 91.86158943 C-113.30792692 89.34789712 -113.34020909 86.83425374 -113.38907051 84.32098198 C-113.77482147 63.64241629 -110.04200188 52.74810491 -95.796875 37.8046875 C-94.62898438 36.63292969 -94.62898438 36.63292969 -93.4375 35.4375 C-92.59445312 34.58929688 -91.75140625 33.74109375 -90.8828125 32.8671875 C-89.67238281 31.66449219 -89.67238281 31.66449219 -88.4375 30.4375 C-87.80070313 29.80328125 -87.16390625 29.1690625 -86.5078125 28.515625 C-73.50223192 16.29351313 -57.32003404 9.55840567 -40.375 4.6875 C-39.69203857 4.48866211 -39.00907715 4.28982422 -38.30541992 4.08496094 C-25.72073512 0.65771757 -12.96327966 -0.00685018 0 0 Z M-49.4375 73.4375 C-50.283125 74.241875 -51.12875 75.04625 -52 75.875 C-52.804375 76.720625 -53.60875 77.56625 -54.4375 78.4375 C-55.1538861 79.07542669 -55.8702722 79.71335339 -56.60836697 80.37061119 C-61.38920791 84.9780275 -64.01005495 88.37297988 -64.51979065 95.10684204 C-64.54565261 97.66834499 -64.52245581 100.23065082 -64.45922852 102.79150391 C-64.45668479 104.21167844 -64.45812474 105.63186477 -64.46321106 107.05203247 C-64.46577666 110.87882212 -64.41314938 114.70303435 -64.35004544 118.52922869 C-64.29349618 122.53826085 -64.28847456 126.54736271 -64.27781677 130.55673218 C-64.24992674 138.13598154 -64.1761877 145.71405209 -64.08567137 153.29278409 C-63.98481223 161.92630002 -63.93552524 170.55987448 -63.89041245 179.19383359 C-63.7965282 196.94238885 -63.638391 214.68984941 -63.4375 232.4375 C-56.03466901 225.06369373 -49.25703377 217.27692368 -42.6875 209.15625 C-39.79565688 205.66193957 -36.74847817 202.32604999 -33.69140625 198.9765625 C-31.33190487 196.31854535 -29.10025885 193.58357706 -26.875 190.8125 C-23.56515946 186.71981022 -20.09075627 182.98283911 -16.32421875 179.3125 C-13.17320236 176.18105514 -10.31936858 172.81504997 -7.4375 169.4375 C-6.64859375 168.53773438 -5.8596875 167.63796875 -5.046875 166.7109375 C14.34701211 144.43422422 38.5625 114.46848409 38.5625 83.4375 C37.8912907 76.58906765 35.89485365 71.21135862 30.46484375 66.69140625 C3.96484403 47.1628803 -26.65041856 50.42745299 -49.4375 73.4375 Z M28.5625 218.4375 C26.86008865 220.51991388 25.20320157 222.61966785 23.5625 224.75 C22.55033558 226.05144775 21.53730534 227.35222258 20.5234375 228.65234375 C20.0190918 229.29929199 19.51474609 229.94624023 18.99511719 230.61279297 C16.37926374 233.94457358 13.68352921 237.20967447 10.9921875 240.48046875 C8.08561811 244.01788519 5.19821185 247.57056432 2.3125 251.125 C1.76384277 251.80054932 1.21518555 252.47609863 0.64990234 253.17211914 C-1.04607208 255.2604385 -2.74181969 257.34894182 -4.4375 259.4375 C-11.75506966 268.45050199 -19.08000578 277.45702912 -26.4375 286.4375 C-27.22125 287.3965625 -28.005 288.355625 -28.8125 289.34375 C-29.59625 290.3028125 -30.38 291.261875 -31.1875 292.25 C-31.92355469 293.15234375 -32.65960937 294.0546875 -33.41796875 294.984375 C-35.08777267 297.01268614 -36.78524825 299.00992192 -38.5 301 C-40.64491471 303.17948614 -40.64491471 303.17948614 -40.4375 305.4375 C-35.45107886 305.58572471 -30.4645217 305.72761195 -25.4777832 305.86474609 C-23.79805166 305.91169854 -22.11835957 305.96009534 -20.4387207 306.01025391 C-3.7603751 306.50630182 12.86222622 306.4375 29.5625 306.4375 C29.5625 277.3975 29.5625 248.3575 29.5625 218.4375 C29.2325 218.4375 28.9025 218.4375 28.5625 218.4375 Z " fill="#7B00FF" transform="translate(976.4375,344.5625)"/>
<path d="M0 0 C1.88232378 -0.01036238 1.88232378 -0.01036238 3.80267429 -0.0209341 C4.86148142 -0.02676294 4.86148142 -0.02676294 5.94167858 -0.03270954 C8.74669808 0.01186605 11.44609933 0.37983278 14.21655273 0.81030273 C15.37392441 0.98726181 16.53129608 1.16422089 17.72373962 1.34654236 C19.56011742 1.6371328 19.56011742 1.6371328 21.43359375 1.93359375 C23.34411278 2.22968285 23.34411278 2.22968285 25.29322815 2.53175354 C27.97238429 2.94744422 30.65084749 3.3672727 33.32885742 3.7902832 C36.766691 4.33309364 40.2058735 4.86672904 43.64558315 5.39750576 C46.92976014 5.90524994 50.21288899 6.41959928 53.49609375 6.93359375 C55.35372597 7.22114784 55.35372597 7.22114784 57.24888611 7.51451111 C58.38419266 7.69462234 59.51949921 7.87473358 60.68920898 8.06030273 C61.6932225 8.21796616 62.69723602 8.37562958 63.73167419 8.53807068 C66 9 66 9 67 10 C67.09619441 11.69558703 67.12187659 13.3952084 67.12025452 15.09352112 C67.12231651 16.74896439 67.12231651 16.74896439 67.12442017 18.43785095 C67.11902725 20.26987816 67.11902725 20.26987816 67.11352539 22.13891602 C67.11367142 23.41677979 67.11381744 24.69464355 67.1139679 26.01123047 C67.11425585 29.52553591 67.1083594 33.0398075 67.10139394 36.55410504 C67.09516012 40.22299356 67.09455658 43.89188277 67.09336853 47.56077576 C67.0902553 54.51290435 67.08204202 61.4650173 67.07201904 68.41713899 C67.06085766 76.3299478 67.05534739 84.24275734 67.05032361 92.15557206 C67.0398594 108.43705721 67.02226011 124.71852661 67 141 C67.60135049 140.99770889 68.20270098 140.99541779 68.82227421 140.99305725 C81.96207093 140.94989186 95.08099082 141.04783801 108.21484375 141.4375 C109.64098307 141.47750477 111.06713064 141.51721645 112.49328613 141.55664062 C117.64145688 141.70092092 122.78947069 141.85075839 127.9375 142 C145.2934375 142.495 145.2934375 142.495 163 143 C163 105.38 163 67.76 163 29 C175.36679696 35.74552561 175.36679696 35.74552561 180.953125 39.1640625 C181.54244812 39.52341888 182.13177124 39.88277527 182.73895264 40.25302124 C184.57746015 41.37459441 186.41385775 42.49955968 188.25 43.625 C192.82819086 46.42518277 197.41091054 49.21769722 202 52 C202.76248047 52.46631836 203.52496094 52.93263672 204.31054688 53.41308594 C207.11879793 55.0883123 208.66450764 56 212 56 C212.30463923 74.64610189 212.53338808 93.29169405 212.67355824 111.93977451 C212.74039335 120.599941 212.83138765 129.25855513 212.98071289 137.91772461 C213.11091228 145.47145901 213.19430087 153.02406867 213.22315043 160.57889408 C213.23999851 164.57422746 213.27913663 168.5663455 213.37449074 172.56064034 C214.03576989 201.37532747 214.03576989 201.37532747 205.79956055 210.13256836 C204.14623139 211.68818819 202.45931768 213.14112937 200.68701744 214.55915642 C197.74525712 217.07164762 195.38508574 220.08062429 192.9375 223.0625 C191.9541137 224.21679927 190.96871366 225.3693889 189.98046875 226.51953125 C189.49239746 227.09010254 189.00432617 227.66067383 188.50146484 228.24853516 C186.95905055 230.0477677 185.41176233 231.84270583 183.86328125 233.63671875 C178.58315126 239.76176826 173.38754959 245.91499825 168.42578125 252.3046875 C167.95527344 252.86414063 167.48476563 253.42359375 167 254 C166.67 254 166.34 254 166 254 C166 237.83 166 221.66 166 205 C157.8325 205.433125 157.8325 205.433125 149.5 205.875 C134.49479124 206.65320692 119.48707249 207.3566124 104.47509766 207.99127197 C102.3827767 208.07974417 100.29049064 208.16904591 98.19824219 208.25921631 C95.23253104 208.3865268 92.26669125 208.51023162 89.30078125 208.6328125 C88.43644974 208.67021545 87.57211823 208.70761841 86.68159485 208.74615479 C80.10428397 209.01109754 73.59876928 209 67 209 C67 253.22 67 297.44 67 343 C53.49750601 346.3756235 53.49750601 346.3756235 48.71240234 347.3503418 C47.63864349 347.57034348 46.56488464 347.79034515 45.45858765 348.01701355 C44.3456131 348.24214127 43.23263855 348.46726898 42.0859375 348.69921875 C40.90907379 348.9391304 39.73221008 349.17904205 38.51968384 349.42622375 C36.05781809 349.92744591 33.59568681 350.42736551 31.13330078 350.92602539 C27.34985851 351.69259395 23.56746221 352.46417454 19.78515625 353.23632812 C17.38547663 353.72425332 14.98573912 354.21189395 12.5859375 354.69921875 C10.88611221 355.04601936 10.88611221 355.04601936 9.15194702 355.39982605 C7.58859116 355.71564384 7.58859116 355.71564384 5.99365234 356.0378418 C5.07498383 356.224207 4.15631531 356.4105722 3.20980835 356.60258484 C1 357 1 357 -1 357 C-1.05856646 298.15558327 -1.02298398 239.31266609 -0.78125 180.46875 C-0.77851342 179.80140886 -0.77577683 179.13406772 -0.77295732 178.44650412 C-0.70364823 161.56912091 -0.6299895 144.69175776 -0.55461788 127.81440067 C-0.51105773 118.05058814 -0.46876312 108.28677065 -0.42724609 98.52294922 C-0.4242591 97.82056033 -0.4212721 97.11817145 -0.41819459 96.39449805 C-0.40319417 92.86571172 -0.38821341 89.3369253 -0.37324238 85.80813885 C-0.25186926 57.20541246 -0.12714134 28.60270133 0 0 Z " fill="#FEFEFF" transform="translate(701,378)"/>
<path d="M0 0 C0 117.81 0 235.62 0 357 C-11.25111274 355.87488873 -11.25111274 355.87488873 -16.13647461 354.89257812 C-17.22717758 354.67565308 -18.31788055 354.45872803 -19.44163513 354.23522949 C-20.58366898 354.00291626 -21.72570282 353.77060303 -22.90234375 353.53125 C-24.10186172 353.29088013 -25.3013797 353.05051025 -26.5372467 352.80285645 C-29.0546659 352.29743451 -31.57162335 351.78970771 -34.08813477 351.27978516 C-37.9489935 350.4976717 -41.81126343 349.72285859 -45.67382812 348.94921875 C-48.12508515 348.45615228 -50.57626002 347.9626772 -53.02734375 347.46875 C-54.18354721 347.23643677 -55.33975067 347.00412354 -56.5309906 346.76477051 C-57.59962845 346.54784546 -58.6682663 346.33092041 -59.76928711 346.10742188 C-60.70953232 345.91724487 -61.64977753 345.72706787 -62.61851501 345.53112793 C-65 345 -65 345 -68 344 C-68 299.78 -68 255.56 -68 210 C-82.19 209.34 -96.38 208.68 -111 208 C-121.39665266 207.46883753 -131.7922804 206.93175366 -142.1875 206.375 C-150.705625 205.92125 -159.22375 205.4675 -168 205 C-168 228.1 -168 251.2 -168 275 C-183.51 275 -199.02 275 -215 275 C-215.52141452 252.9312418 -215.52141452 252.9312418 -215.63476562 243.43359375 C-215.71211833 236.98310175 -215.80302486 230.53503604 -215.98071289 224.08642578 C-216.1232673 218.8795494 -216.19995623 213.67527739 -216.23340416 208.46659851 C-216.25719822 206.49215221 -216.30366258 204.51782885 -216.37449074 202.54450989 C-216.79918848 190.20744842 -215.51043022 182.48435847 -207.01035023 173.17736053 C-205.88701478 172.0051683 -204.7543727 170.84181067 -203.61177635 169.68838501 C-201.12597389 167.08443093 -199.02872631 164.25827739 -196.875 161.375 C-194.37008828 158.08781003 -191.85988687 154.81010023 -189.2890625 151.57421875 C-184.10759582 145.05216913 -179.08538689 138.47171678 -174.34765625 131.61743164 C-172.07558631 128.36236522 -169.84917515 125.84917515 -167 123 C-167 130.26 -167 137.52 -167 145 C-163.67808594 144.86722656 -160.35617187 144.73445312 -156.93359375 144.59765625 C-115.68133321 142.95489221 -115.68133321 142.95489221 -98.3125 142.375 C-96.5953479 142.31517944 -96.5953479 142.31517944 -94.84350586 142.25415039 C-86.21584819 141.97715953 -77.64583945 142 -69 142 C-69 98.77 -69 55.54 -69 11 C-6 0 -6 0 0 0 Z " fill="#FEFEFF" transform="translate(1221,377)"/>
</svg>
